<?xml version="1.0" standalone="no"?>
<!DOCTYPE svg PUBLIC "-//W3C//DTD SVG 20010904//EN"
 "http://www.w3.org/TR/2001/REC-SVG-20010904/DTD/svg10.dtd">
<svg version="1.0" xmlns="http://www.w3.org/2000/svg"
 width="35px" height="35px" viewBox="0 0 512.000000 512.000000"
 preserveAspectRatio="xMidYMid meet">

<g transform="translate(0.000000,512.000000) scale(0.100000,-0.100000)"
fill="#FFFFFF" stroke="none">
<path d="M3415 5114 c-81 -22 -2518 -830 -2548 -846 -58 -29 -116 -93 -150
-166 l-32 -67 -3 -1820 c-2 -1198 1 -1846 7 -1897 6 -44 21 -99 35 -126 30
-59 110 -135 173 -165 l48 -22 1615 0 1615 0 48 22 c63 30 143 106 173 165 13
26 28 78 34 115 13 92 13 3464 0 3556 -13 88 -46 151 -109 210 -85 80 -119 90
-313 95 l-168 4 0 287 c0 315 -8 398 -44 469 -30 60 -112 137 -173 163 -47 20
-167 33 -208 23z m103 -306 c9 -9 12 -95 12 -325 l0 -313 -1007 1 -1008 0 575
190 c316 105 755 250 975 324 220 73 409 134 421 134 11 1 25 -4 32 -11z m600
-950 c17 -17 17 -3529 0 -3546 -17 -17 -3099 -17 -3116 0 -17 17 -17 3529 0
3546 17 17 3099 17 3116 0z"/>
<path d="M2516 3460 c-65 -20 -106 -85 -106 -167 l0 -48 -87 -23 c-257 -66
-480 -238 -610 -469 -41 -75 -103 -244 -103 -285 0 -24 -4 -27 -50 -33 -61 -8
-109 -39 -132 -85 -34 -67 -13 -145 51 -187 l34 -23 1047 0 1047 0 34 23 c122
81 72 251 -81 272 -46 6 -50 9 -50 33 0 41 -62 210 -103 285 -133 237 -362
410 -625 474 l-70 16 -4 64 c-7 113 -95 183 -192 153z m208 -530 c227 -58 412
-237 481 -467 l6 -23 -650 0 c-358 0 -651 2 -651 3 0 2 9 30 20 63 69 200 254
369 462 424 99 26 232 26 332 0z"/>
<path d="M1550 1712 c-55 -30 -75 -65 -75 -132 0 -67 20 -102 75 -132 33 -17
60 -18 437 -16 388 3 403 4 429 24 50 37 69 72 69 124 0 52 -19 87 -69 124
-26 20 -41 21 -429 24 -377 2 -404 1 -437 -16z"/>
<path d="M1530 1111 c-55 -29 -75 -64 -75 -131 0 -67 20 -102 75 -131 33 -18
80 -19 1030 -19 950 0 997 1 1030 19 55 29 75 64 75 131 0 67 -20 102 -75 131
-33 18 -80 19 -1030 19 -950 0 -997 -1 -1030 -19z"/>
</g>
</svg>
